<svg width="32" height="32" viewBox="0 0 32 32" fill="none" xmlns="http://www.w3.org/2000/svg">
  <!-- Background Circle -->
  <circle cx="16" cy="16" r="16" fill="#32A7E2"/>
  
  <!-- Link/Connection Symbol -->
  <path d="M12 11C12 9.89543 12.8954 9 14 9H18C19.1046 9 20 9.89543 20 11V13C20 14.1046 19.1046 15 18 15H16M16 17H14C12.8954 17 12 17.8954 12 19V21C12 22.1046 12.8954 23 14 23H18C19.1046 23 20 22.1046 20 21V19C20 17.8954 19.1046 17 18 17H16Z" stroke="white" stroke-width="2" stroke-linecap="round" stroke-linejoin="round"/>
  
  <!-- Checkmark accent -->
  <circle cx="24" cy="8" r="4" fill="#6FC242"/>
  <path d="M22.5 8L23.5 9L25.5 7" stroke="white" stroke-width="1.5" stroke-linecap="round" stroke-linejoin="round"/>
</svg>

