<svg width="64" height="64" viewBox="0 0 64 64" fill="none" xmlns="http://www.w3.org/2000/svg">
  <!-- Modern gradient background -->
  <defs>
    <linearGradient id="bgGradient" x1="0%" y1="0%" x2="100%" y2="100%">
      <stop offset="0%" style="stop-color:#32A7E2;stop-opacity:1" />
      <stop offset="100%" style="stop-color:#2B96D1;stop-opacity:1" />
    </linearGradient>
    <linearGradient id="accentGradient" x1="0%" y1="0%" x2="100%" y2="100%">
      <stop offset="0%" style="stop-color:#6FC242;stop-opacity:1" />
      <stop offset="100%" style="stop-color:#5db336;stop-opacity:1" />
    </linearGradient>
  </defs>
  
  <!-- Background -->
  <rect width="64" height="64" rx="12" fill="url(#bgGradient)"/>
  
  <!-- Letter 'S' stylized as connection/link -->
  <path d="M32 18C26 18 22 22 22 26C22 28 23 30 25 31C27 32 29 32 32 32C35 32 37 32 39 33C41 34 42 36 42 38C42 42 38 46 32 46C26 46 22 42 22 38" stroke="white" stroke-width="4" stroke-linecap="round" stroke-linejoin="round"/>
  
  <!-- Verified checkmark badge -->
  <circle cx="50" cy="14" r="8" fill="url(#accentGradient)"/>
  <path d="M46 14L48.5 16.5L54 11" stroke="white" stroke-width="2.5" stroke-linecap="round" stroke-linejoin="round"/>
</svg>
